{"title":"The Hamsters(1995)Jimi Hendrix Memorial Concerts][mp3 320kbs][IC","uid":6081927,"size":286740873,"categoryP":"audio","categoryS":"other","magnet":"?xt=urn:btih:5a4fd1b4eb48c1832df1ee0fe8e4bddedb1d7503&amp;dn=The+Hamsters%281995%29Jimi+Hendrix+Memorial+Concerts%5D%5Bmp3+320kbs%5D%5BIC&amp;tr=udp%3A%2F%2Ftracker.openbittorrent.com%3A80&amp;tr=udp%3A%2F%2Fopen.demonii.com%3A1337&amp;tr=udp%3A%2F%2Ftracker.coppersurfer.tk%3A6969&amp;tr=udp%3A%2F%2Fexodus.desync.com%3A6969","seeders":0,"leechers":1,"uploader":"ICM369","files":-1,"time":1294151805,"description":"The Hamsters(1995)Jimi Hendrix Memorial Concerts][mp3 320kbs][ICM369\n____________________________________________________________________\n\nThanks to the original uploader.\n\nThe Hamsters, a blues-rock power trio based in the United Kingdom, are a very \ntalented, tight, and well balanced band. \n\nThe guitar playing is excellent, as are the vocals. They do some songwriting, \nbut their specialty seems to be a balanced mix of very tasty interpretations \nof early classic rock n' roll, ballads, blues, and Jimi Hendrix.\n__________\n\nPurple CD\n_________\n\n1 - Voodoo Chile.\n\n2 - Room Full Of Mirrors.\n\n3 - Third Stone From The Sun.\n\n4 - Come On.\n\n5 - 51st Anniversary.\n\n6 - I Don't Live Today.\n\n7 - Love Or Confusion.\n\n8 - The Wind Cries Mary.\n\n9 - Manic Depression.\n\n10 - Stone Free.\n\n11 - All Along The Watchtower.\n\n12 - Star Spangled Banner.\n\n13 - Purple Haze.\n\n14 - Angel. \n\nRed CD\n______\n\n1 - Foxy Lady.\n\n2 - Fire.\n\n3 - Little Wing.\n\n4 - Izabells.\n\n5 - Up From The Skies.\n\n6 - Power Of Soul.\n\n7 - Spanish Castle Magic.\n\n8 - Rock Me Baby.\n\n9 - Voodoo Chile.\n\n10 - Hey Baby.\n\n11 - Burning Of The Midnight Lamp.\n\n12 - Eze Rider.\n\n13 - Hey Joe.\n__________\n\nFormat : MPEG Audio\nFile size : 15.9 MiB\nDuration : 6mn 58s\nOverall bit rate : 320 Kbps\nAlbum : Electric Hamsterland\nTrack name : Voodoo Chile\nTrack name/Position : 1\nPerformer : The Hamsters\nWriting library : LAME3.92\n\nAudio\nFormat : MPEG Audio\nFormat version : Version 1\nFormat profile : Layer 3\nDuration : 6mn 58s\nBit rate mode : Constant\nBit rate : 320 Kbps\nChannel(s) : 2 channels\nSampling rate : 44.1 KHz\nStream size : 15.9 MiB (100%)\nWriting library : LAME3.92\n__________\n\nFormat : MPEG Audio\nFile size : 9.91 MiB\nDuration : 4mn 19s\nOverall bit rate : 320 Kbps\nAlbum : Electric Hamsterland red CD\nTrack name : Foxy Lady\nTrack name/Position : 1\nPerformer : The Hamsters\nWriting library : LAME3.92\n\nAudio\nFormat : MPEG Audio\nFormat version : Version 1\nFormat profile : Layer 3\nDuration : 4mn 19s\nBit rate mode : Constant\nBit rate : 320 Kbps\nChannel(s) : 2 channels\nSampling rate : 44.1 KHz\nStream size : 9.91 MiB (100%)\nWriting library : LAME3.92\n__________\n\nMp3\n\nRipped:320\n\nEnjoy:D\n\n","torrent":{"xt":"urn:btih:5a4fd1b4eb48c1832df1ee0fe8e4bddedb1d7503","amp;dn":"The+Hamsters%281995%29Jimi+Hendrix+Memorial+Concerts%5D%5Bmp3+320kbs%5D%5BIC","amp;tr":["udp%3A%2F%2Ftracker.openbittorrent.com%3A80","udp%3A%2F%2Fopen.demonii.com%3A1337","udp%3A%2F%2Ftracker.coppersurfer.tk%3A6969","udp%3A%2F%2Fexodus.desync.com%3A6969"],"infoHash":"5a4fd1b4eb48c1832df1ee0fe8e4bddedb1d7503","infoHashBuffer":{"type":"Buffer","data":[90,79,209,180,235,72,193,131,45,241,238,15,232,228,189,222,219,29,117,3]},"announce":[],"urlList":[]}}